<svg version="1.2" xmlns="http://www.w3.org/2000/svg" viewBox="0 0 590 438" width="590" height="438">
	<style>
		.s0 { fill: #000000 } 
		.s1 { fill: #040101 } 
		.s2 { fill: #7f7f7f } 
		.s3 { fill: #ed1c24 } 
		.s4 { fill: #c3c3c3 } 
		.s5 { fill: #ffffff } 
	</style>
	<g id="img1">
		<path id="Path 0" class="s0" d="m449 62v8h-363v258h421v-258h-16v-16h-42z"/>
		<path id="Path 1" fill-rule="evenodd" class="s1" d="m316 362.61c0.27 0.11 0.2 4.4-0.16 9.54-0.36 5.14-0.69 12.61-0.75 16.6-0.07 5.82 0.21 7.25 1.41 7.25 0.82 0 1.5 0.67 1.5 1.5 0 0.82-1.01 1.71-2.25 1.96-1.24 0.26-2.57 0.15-2.96-0.25-0.39-0.39-0.84-1.68-1-2.86-0.16-1.19-0.62-2.54-1.03-3-0.4-0.47-1.14 0.27-1.63 1.65-0.5 1.37-1.87 3.4-3.05 4.5-2.06 1.92-2.21 1.93-3.86 0.21-1.39-1.45-1.71-3.64-1.68-11.5 0.02-5.34 0.56-11.51 1.2-13.71 0.64-2.2 2.22-5.58 3.5-7.5 1.83-2.75 3.17-3.62 6.29-4.04 2.19-0.3 4.2-0.46 4.47-0.35zm-11.96 16.89c-0.31 4.4-0.33 9.64-0.05 11.64 0.28 2.01 0.84 4.03 1.25 4.5 0.41 0.47 1.65-0.04 2.75-1.14q2-2.01 3.51-10.5c0.83-4.68 1.5-10.64 1.5-13.25 0-4.39-0.19-4.75-2.48-4.75-1.62 0-3.07 0.95-4.2 2.75-1.05 1.7-1.93 5.8-2.28 10.75z"/>
		<path id="Path 2" class="s2" d="m454 64v5h32v-10h-32zm-363 135v124h411v-248h-411z"/>
		<path id="Path 3" fill-rule="evenodd" class="s1" d="m87.5 336.67c-0.46 0.36-0.76 1.94-0.67 3.5 0.1 1.71 0.66 2.7 1.42 2.5 0.69-0.18 1.36-1.75 1.49-3.5 0.13-1.74-0.13-3.17-0.58-3.17-0.46 0-1.2 0.3-1.66 0.67zm403.49 0.42c-0.77 0.72-1.3 2.34-1.19 3.61 0.11 1.26 0.65 2.53 1.2 2.8 0.55 0.27 1.25-0.06 1.55-0.75 0.31-0.69 0.39-2.54 0.19-4.11-0.3-2.41-0.59-2.66-1.75-1.55zm-393.44 0.91c-0.3 0.55-0.12 1.11 0.42 1.25 0.58 0.15 0.12 7.09-1.2 17.75-1.18 9.62-1.84 18.29-1.46 19.25 0.4 1.02 1.74 1.75 3.19 1.75 1.37 0 2.5-0.45 2.5-1 0-0.55-0.56-1-1.25-0.99-0.97 0-1.09-2.53-0.52-11.25 0.4-6.2 0.98-14.97 1.28-19.51 0.46-6.87 0.31-8.25-0.93-8.25-0.81 0-1.73 0.45-2.03 1zm21 1c-0.3 0.55-0.05 1.11 0.56 1.25 0.78 0.18 0.86 2.16 0.25 6.73-0.85 6.43-0.89 6.49-4.36 7.05-1.93 0.31-4.06 0.88-4.75 1.27-0.69 0.38-1.93 2.05-2.75 3.7-0.83 1.65-1.97 5.14-2.55 7.75-0.58 2.61-0.81 6.44-0.5 8.5 0.39 2.64 1.27 4.12 2.99 5 2.06 1.05 2.84 0.97 5-0.5 1.41-0.96 2.78-1.75 3.06-1.75 0.27 0 0.5 0.9 0.5 2 0 1.1 0.79 2.18 1.75 2.39 0.96 0.22 2.42 0.04 3.25-0.4 1.3-0.7 1.27-1.01-0.25-2.4-1.33-1.21-1.63-2.61-1.24-5.84 0.27-2.34 0.95-10.55 1.49-18.25 0.55-7.7 0.99-14.79 1-15.75 0-0.96-0.65-1.75-1.45-1.75-0.8 0-1.7 0.45-2 1zm-6.62 18.06c0.86-0.55 1.91-1.01 2.32-1.03 0.41-0.02 1.42 0.2 2.25 0.47 0.82 0.27 1.5 1.17 1.5 2 0 0.82-0.66 4.54-1.47 8.25-0.81 3.71-2.33 7.87-3.39 9.25-1.72 2.25-2.08 2.35-3.57 1-1.14-1.03-1.64-3.06-1.61-6.5 0.03-2.75 0.58-6.68 1.22-8.72 0.64-2.05 1.88-4.17 2.75-4.72zm305.65-16.56c-0.32 0.82-0.58 2.85-0.58 4.5q0 3 1.5 3c1.11 0 1.5-1.17 1.5-4.5 0-2.48-0.41-4.5-0.92-4.5-0.5 0-1.17 0.67-1.5 1.5zm-23.58 1c0 0.82 0.47 1.61 1.04 1.75 0.7 0.17 0.53 8.26-0.54 25.25-0.86 13.75-1.32 25.23-1.02 25.5 0.31 0.27 0.99 0.05 1.53-0.5 0.54-0.55 1.43-4.94 1.98-9.75 0.56-4.81 1.46-9.88 2.01-11.25 0.72-1.8 0.67-2.57-0.17-2.75-0.85-0.18-1.12-4.38-0.97-15 0.21-14.24 0.14-14.75-1.82-14.75-1.15 0-2.04 0.66-2.04 1.5zm-327.78 2.78c0.01 1.22-0.59 7.02-1.35 12.88-0.75 5.87-1.71 10.48-2.12 10.25-0.41-0.22-0.75 0.04-0.75 0.59 0 0.55 1.69 1.45 3.75 1.99 2.06 0.55 5.1 1.01 6.75 1.03 1.83 0.02 3.87-0.85 5.23-2.24 1.25-1.28 2.26-3.59 2.29-5.28 0.04-1.65-0.8-4.13-1.85-5.5-1.9-2.47-1.9-2.53 0.06-5 1.38-1.74 1.79-3.33 1.37-5.25-0.33-1.51-1.39-3.14-2.35-3.61-0.96-0.48-3.85-1.13-6.41-1.47-4.33-0.56-4.65-0.45-4.62 1.61zm2.78 4.72c0-2.75 0.45-5 1-5 0.55 0 2.14 0.56 3.53 1.25 1.94 0.96 2.52 2 2.5 4.5-0.02 2.37-0.64 3.55-2.28 4.34-1.24 0.59-2.81 0.82-3.5 0.5-0.76-0.36-1.25-2.57-1.25-5.59zm-1.26 12.25c0.27-2.89 0.55-5.26 0.63-5.27 0.07-0.01 1.59 0.44 3.38 1 2.05 0.65 3.46 1.85 3.82 3.27 0.31 1.24 0.42 3.6 0.25 5.25-0.28 2.62-0.76 3.04-3.82 3.33-2.21 0.21-3.73-0.15-4.13-1-0.34-0.73-0.4-3.69-0.13-6.58zm181.26-18.25c0 0.55 0.47 1.11 1.04 1.25 0.7 0.17 0.55 5.43-0.45 16.25-0.82 8.8-1.8 20.05-2.17 25-0.46 6.03-0.32 9.74 0.44 11.25 0.73 1.43 2.05 2.25 3.64 2.25 1.42 0 3.69-1.21 5.25-2.81 1.51-1.54 3.62-5.48 4.68-8.75 1.17-3.63 1.93-8.85 1.96-13.44 0.01-4.13-0.51-8.51-1.18-9.75-0.67-1.24-1.88-2.25-2.71-2.25-0.82 0-2.87 1.69-4.54 3.75l-3.04 3.75c1.09-27.05 1.04-27.5-0.91-27.5-1.1 0-2.01 0.45-2.01 1zm7.31 24.16c0.98-1.11 1.42-1.02 2.54 0.5 0.99 1.35 1.21 4.23 0.85 10.84-0.27 4.95-1.21 10.69-2.09 12.75-0.89 2.06-2.06 3.98-2.61 4.25-0.55 0.27-1.75 0.16-2.66-0.25-1.43-0.65-1.58-1.93-1.06-9.25 0.32-4.68 1.32-10.52 2.22-13 0.89-2.48 2.16-5.1 2.81-5.84zm51.19-22.49c-0.46 0.36-0.76 2.16-0.67 4 0.11 2.11 0.63 3.21 1.42 3 0.69-0.18 1.36-1.98 1.5-4 0.14-2.02-0.12-3.67-0.58-3.67-0.46 0-1.21 0.3-1.67 0.67zm5.94 0.02c-0.42 0.36-0.7 2.14-0.61 3.98 0.1 1.83 0.62 3.33 1.17 3.33 0.55 0 1.23-0.68 1.5-1.5 0.27-0.83 0.55-2.37 0.6-3.44 0.06-1.07-0.34-2.18-0.89-2.47-0.55-0.3-1.34-0.25-1.77 0.1zm210.96 4.46c-1.4 1.58-1.5 2.01-0.4 1.66 0.83-0.27 2.05 0.23 2.72 1.1 1.03 1.35 1.22 1.1 1.25-1.66 0.02-1.79-0.35-3.25-0.82-3.25-0.47 0-1.71 0.97-2.75 2.15zm-7.65 0.62c0.97 0.56 1.03 2.33 0.27 7.73-0.54 3.85-0.99 8.46-1 10.25-0.01 2.11 0.42 3.14 1.23 2.92 0.69-0.18 1.74-2.76 2.33-5.75 0.6-2.98 1.39-6.66 1.75-8.17 0.42-1.71 0.29-2.56-0.33-2.25-0.56 0.28-1-0.83-1-2.5 0-2.45-0.41-3-2.25-2.98-1.43 0.01-1.8 0.28-1 0.75zm-73.25 0.9c-0.46 0.36-0.76 1.71-0.67 3 0.1 1.28-0.28 2.56-0.83 2.83-0.55 0.27-0.77 1.74-0.49 3.25 0.28 1.51 0.12 7.7-0.37 13.75-0.48 6.05-0.71 11.56-0.51 12.25 0.2 0.69 1.16 1.26 2.12 1.27 0.96 0.01 2.65-0.65 3.75-1.47 1.95-1.45 1.94-1.49-0.5-1.51l-2.5-0.03c1.27-18.22 1.84-23.85 2.07-24.26 0.24-0.41 1.33-0.75 2.43-0.75 1.11 0 2-0.67 2-1.5 0-0.96-0.8-1.41-2.24-1.25-1.94 0.22-2.21-0.17-2.02-3 0.11-1.79-0.15-3.25-0.6-3.25-0.44 0-1.18 0.3-1.64 0.67zm59.57 2.03c-1.2 1.54-2.84 5.05-3.64 7.8-0.8 2.75-1.45 6.01-1.44 7.25 0.01 1.24 0.46 3.37 1.01 4.75 0.6 1.5 1.8 2.5 3 2.5 1.1 0 3.24-1.09 4.75-2.42l2.75-2.42c-5.84 0.29-7.02-0.13-7.23-1.16-0.16-0.83 1.06-2.29 2.72-3.25 1.65-0.96 3.92-3.21 5.03-5 1.26-2.02 1.92-4.57 1.75-6.75-0.24-3.12-0.61-3.53-3.4-3.8-2.44-0.24-3.6 0.3-5.3 2.5zm0.96 1.3c0.56-1.1 1.91-2 3-2 1.52 0 1.97 0.68 1.97 3 0 1.65-0.67 4.35-1.5 6-0.82 1.65-1.73 3-2 3-0.27 0-1.26 0.34-2.19 0.75-1.51 0.67-1.62 0.23-1-4 0.38-2.61 1.15-5.65 1.72-6.75zm-418.53-2.05q1 0.99-0.5 10.54c-1.11 7.07-1.21 10-0.4 11.28 0.61 0.95 2.07 1.84 3.25 1.98 1.18 0.14 2.15-0.2 2.15-0.75 0-0.55-0.56-1-1.25-0.99-0.96 0-1.11-2.64-0.64-11.5 0.6-11.24 0.57-11.51-1.5-11.53q-2.1-0.01-1.11 0.97zm396.49 2.24c-1.14 1.2-2.08 2.66-2.08 3.25 0 0.67 0.57 0.6 1.55-0.19 1.25-1.02 1.63-0.97 2.04 0.25 0.27 0.82 0.95 1.27 1.5 1 0.55-0.27 1-1.85 1-3.5 0-1.65-0.43-3-0.96-3-0.53 0-1.9 0.98-3.05 2.19zm7.94-1.94c-0.04 0.14-0.19 1.82-0.32 3.75-0.14 1.92-0.63 7.32-1.09 12-0.61 6.16-0.52 8.71 0.32 9.25 0.64 0.41 2.17 0.25 3.41-0.36 1.87-0.91 1.99-1.25 0.75-1.96-1.22-0.69-1.45-2.91-1.21-11.89 0.19-7.19-0.07-11.04-0.75-11.04-0.57 0-1.07 0.11-1.11 0.25zm-152.36 2.22c-0.5 0.47-0.83 2.14-0.74 3.7 0.1 1.6-0.59 3.53-1.58 4.44-1.46 1.34-1.54 1.93-0.5 3.5 0.99 1.5 1.01 4.75 0.09 15.64-0.64 7.56-0.86 14.54-0.5 15.5 0.49 1.3 1.36 1.6 3.41 1.18 1.51-0.31 3.2-1.01 3.75-1.54q0.97-0.96-1.25-1.43c-2.11-0.43-2.25-0.96-2.26-8.71 0-4.54 0.34-11.07 0.75-14.51 0.68-5.61 0.99-6.26 3.01-6.25 1.34 0.01 2.25-0.6 2.25-1.49 0-0.93-0.94-1.5-2.5-1.5-2.27 0-2.52-0.43-2.77-4.7-0.15-2.74-0.64-4.33-1.16-3.83zm121.68 1.02c-1.24 0.83-3.22 3.42-4.4 5.76-1.25 2.47-2.36 6.97-2.64 10.75-0.27 3.57-0.21 7.74 0.15 9.25 0.45 1.95 1.44 2.92 3.39 3.33 1.72 0.36 3.6-0.02 5-1 1.24-0.87 3.15-3.38 4.25-5.58 1.1-2.2 2.36-6.36 2.8-9.25 0.44-2.89 0.47-6.83 0.06-8.75-0.41-1.93-1.55-4.07-2.55-4.77-1-0.69-2.26-1.26-2.81-1.25-0.55 0-2.01 0.68-3.25 1.51zm-1.19 4.26c1.14-1.51 2.49-2.75 3.01-2.75 0.51 0 1.69 1.24 2.61 2.75 1.29 2.1 1.57 4.28 1.21 9.25-0.27 3.59-1.25 7.73-2.19 9.25-0.93 1.52-2.6 2.75-3.7 2.75-1.45 0-2.31-1.04-3.12-3.75-0.62-2.1-0.85-6.17-0.51-9.25 0.36-3.22 1.47-6.64 2.69-8.25zm16.36-4c0.34 0.96 0.16 6.59-0.4 12.5-0.56 5.91-0.79 11.2-0.52 11.75 0.31 0.63 1.07 0.54 2.04-0.25 0.89-0.71 1.53-2.75 1.5-4.75-0.03-1.93 0.63-6.09 1.45-9.25 0.83-3.16 1.51-5.98 1.51-6.25 0-0.27-0.56-0.39-1.25-0.25-0.73 0.15-1.32-0.9-1.42-2.5q-0.16-2.76-1.84-2.75c-1.16 0-1.49 0.54-1.07 1.75zm-148.42 1.75c0 1.37-0.79 3.87-1.75 5.54-1.27 2.21-1.43 3.24-0.59 3.75 0.88 0.54 0.88 4.25 0 15.42q-1.16 14.72-0.16 15.84c0.56 0.64 2.2 0.88 3.75 0.54 1.51-0.32 2.75-1.04 2.75-1.59 0-0.55-0.68-1-1.5-1-1.23 0-1.5-1.75-1.51-9.75 0-5.36 0.34-11.88 0.75-14.48 0.59-3.65 1.21-4.79 2.75-5 1.09-0.15 2.11-1.06 2.25-2.02 0.19-1.27-0.43-1.75-2.24-1.75-2.25 0-2.5-0.4-2.5-4 0-2.2-0.45-4-1-4-0.55 0-1 1.12-1 2.5zm-194.29 0.25c-0.87 0.96-2.37 3.55-3.32 5.75-1.06 2.45-1.76 6.75-1.81 11.1-0.06 4.97 0.37 7.6 1.42 8.79 0.82 0.93 2.62 1.69 4 1.69 1.37-0.01 3.4-0.93 4.5-2.05 1.1-1.12 1.66-2.26 1.25-2.54-0.41-0.27-1.68 0.07-2.81 0.76-1.76 1.07-2.27 0.96-3.52-0.75-0.8-1.1-1.45-2.79-1.44-3.75 0.01-1.1 0.79-1.75 2.1-1.75 1.14 0 3.32-1.24 4.85-2.75 1.83-1.81 3.02-4.29 3.48-7.25 0.52-3.34 0.3-5.08-0.85-6.75-0.87-1.25-2.6-2.25-3.91-2.25-1.3 0-3.07 0.79-3.94 1.75zm1.43 1.5c0.6-0.69 1.48-1.25 1.97-1.25 0.49 0 1.45 1.14 2.14 2.53 1 2.03 1 3.33 0 6.5-0.77 2.44-2.21 4.45-3.74 5.22-1.37 0.69-2.83 0.89-3.25 0.44-0.42-0.45-0.18-3.37 0.52-6.5 0.71-3.13 1.77-6.25 2.36-6.94zm11.95-1.32c-0.05 0.59 0.25 1.08 0.66 1.09 0.41 0 0.46 2.14 0.1 4.75-0.36 2.6-1.04 8.9-1.5 13.99-0.78 8.48-0.7 9.26 0.9 9.25 1.34-0.01 1.87-1.11 2.29-4.76 0.29-2.61 1.2-7.68 2.02-11.25 0.82-3.58 2.14-7.18 2.94-8 1.28-1.33 1.5-1.3 1.97 0.25 0.29 0.96 0.98 1.75 1.53 1.75 0.55 0 1-1.8 1-4 0-2.2-0.45-4-1-4-0.55 0-2.24 1.57-3.75 3.5-1.51 1.92-3.09 3.5-3.5 3.5-0.41 0-0.69-1.46-0.61-3.23 0.09-2.19-0.37-3.35-1.42-3.58-0.85-0.18-1.58 0.15-1.63 0.74zm285.16 0.54c-1.24 0.84-2.74 3.22-3.34 5.28-0.78 2.7-0.78 4.52 0 6.5 0.6 1.51 2.44 4.1 4.09 5.75 1.65 1.65 3 3.9 3 5 0 1.1-0.45 2.9-1 4-0.55 1.1-1.9 2-3 2-1.1 0-2.49-1.01-3.08-2.25q-1.09-2.23-2.05-1.25c-0.54 0.55-0.84 2.12-0.67 3.5 0.24 1.96 0.94 2.56 3.3 2.79 2.06 0.2 3.72-0.43 5.3-2 1.26-1.26 2.72-3.98 3.25-6.04 0.52-2.06 0.75-4.54 0.51-5.5-0.24-0.96-2.04-3.66-4-6-1.96-2.34-3.57-5.04-3.58-6-0.01-0.96 0.53-2.31 1.2-3 0.67-0.69 1.8-1.25 2.52-1.25 0.71 0 1.52 0.9 1.8 2 0.27 1.1 0.95 2 1.5 2 0.55 0 0.89-1.46 0.75-3.25-0.18-2.39-0.78-3.32-2.25-3.53-1.1-0.15-3.01 0.41-4.25 1.25zm-257.15 2.72c-1.16 1.27-2.37 3.43-2.69 4.81-0.32 1.37-0.25 3.62 0.14 5 0.4 1.37 2.03 4.3 3.63 6.5 2.15 2.96 2.83 4.91 2.62 7.5-0.26 2.99-0.67 3.5-2.8 3.5-1.63 0-2.85-0.78-3.5-2.25-0.55-1.24-1.34-2.26-1.75-2.25-0.41 0-1 1.01-1.31 2.25-0.37 1.44 0.08 2.89 1.25 4.03 0.99 0.98 2.93 1.79 4.31 1.79 1.37 0 3.4-0.98 4.5-2.16 1.32-1.43 2.11-3.9 2.34-7.28 0.3-4.59-0.05-5.65-3.33-10.13-2.85-3.88-3.54-5.61-3.09-7.75 0.4-1.89 1.21-2.75 2.58-2.75 1.17 0 2.21 0.83 2.5 2 0.27 1.1 0.95 2 1.5 2 0.55 0 0.89-1.46 0.75-3.25-0.21-2.69-0.7-3.3-2.9-3.56q-2.64-0.31-4.75 2zm229.09 0.56c-1.06 1.51-2.21 3.76-2.56 5-0.35 1.24-0.41 2.25-0.13 2.25 0.27 0 1.42-1.69 2.55-3.75 1.38-2.54 2.38-3.43 3.08-2.75 0.7 0.69 0.67 5.23-0.11 14.5-0.92 10.97-0.89 13.72 0.17 14.65 0.91 0.8 2.08 0.85 3.81 0.18 2.46-0.95 2.47-0.99 0.5-2.43-1.88-1.39-1.96-2.16-1.25-13.43 0.47-7.48 0.37-12.91-0.25-14.47-0.55-1.38-1.65-2.5-2.44-2.5-0.79 0-2.31 1.24-3.37 2.75zm14.21-1c0.39 0.96 0.12 7.7-0.59 14.96-0.88 8.84-0.98 13.59-0.31 14.35 0.56 0.63 2.2 0.87 3.75 0.53 1.51-0.32 2.75-1.04 2.75-1.59 0-0.55-0.68-1-1.5-1-1.26 0-1.5-2.28-1.5-14.5 0-12.83-0.19-14.5-1.66-14.5-1.18 0-1.45 0.5-0.94 1.75zm-228.41 4c-1.8 2.88-3.4 7.31-4.07 11.25-0.6 3.57-0.83 8.41-0.51 10.75 0.4 2.87 1.4 4.9 3.09 6.25 1.51 1.21 3.19 1.74 4.25 1.35 0.96-0.36 2.56-1.37 3.55-2.25 0.99-0.88 2.72-4.08 3.85-7.1 1.24-3.35 2.1-8.25 2.2-12.55 0.11-5.21-0.31-7.74-1.6-9.75-1.27-1.95-2.59-2.7-4.77-2.7-2.52 0-3.51 0.79-5.99 4.75zm1.42 1.5c0.9-1.79 2.41-3.27 3.36-3.29 1.02-0.02 2.31 1.31 3.15 3.25 0.99 2.31 1.25 5.52 0.89 10.79-0.29 4.12-1.16 8.75-1.92 10.28-0.91 1.82-2.16 2.77-3.64 2.75-1.72-0.02-2.52-0.91-3.39-3.78-0.64-2.11-0.91-6.59-0.61-10.25 0.29-3.58 1.26-7.96 2.16-9.75zm16.68-3.82c-0.05 0.86 0.25 1.57 0.66 1.58 0.41 0.01 0.44 2.59 0.06 5.75-0.38 3.16-1.06 10.13-1.5 15.5-0.69 8.36-0.6 9.76 0.69 9.76 1.12 0 1.72-1.85 2.35-7.26 0.47-3.99 1.37-9.41 2-12.05 0.92-3.81 0.88-5.03-0.15-6-0.72-0.67-1.18-2.76-1.02-4.66 0.21-2.55-0.14-3.55-1.36-3.83-0.96-0.21-1.68 0.28-1.73 1.21zm7.83 1.1c-1.33 1.38-1.97 2.49-1.42 2.45 0.55-0.04 0.32 0.64-0.5 1.5-0.83 0.86-1.16 1.78-0.75 2.04 0.41 0.27 1.42-0.87 2.25-2.52 0.82-1.65 2.06-3 2.75-3.01 0.97 0 1.08 2.4 0.47 10.75-0.44 5.92-1.11 13.13-1.5 16.02-0.63 4.62-0.51 5.26 1.03 5.25 1.01 0 1.94-0.96 2.2-2.26 0.24-1.24 0.74-4.95 1.1-8.25 0.37-3.3 1.48-8.7 2.48-12 1-3.3 2.54-6.68 3.42-7.5 0.88-0.83 1.92-1.13 2.32-0.68 0.4 0.45 0.14 7.43-0.58 15.5-1.08 12.11-1.08 14.89 0 15.9 0.72 0.67 2.32 1.01 3.56 0.75 1.24-0.26 2.25-0.92 2.25-1.47 0-0.55-0.68-1.23-1.5-1.5-1.28-0.43-1.42-2.7-0.96-15.25 0.3-8.11 0.19-15.35-0.25-16.07-0.43-0.73-1.67-1.18-2.74-1-1.07 0.17-2.87 2.02-4 4.1-1.13 2.07-2.39 3.76-2.8 3.75-0.41-0.02-0.74-1.49-0.73-3.28 0.01-1.79-0.56-3.82-1.25-4.52-0.7-0.69-1.53-1.26-1.85-1.25-0.32 0.01-1.67 1.16-3 2.55zm143.01-1.8c-2.34 0.25-4.34 1.32-5.81 3.08-1.23 1.48-2.88 4.94-3.68 7.69-0.79 2.75-1.72 8.15-2.06 12-0.46 5.31-0.22 7.91 1 10.75 1.38 3.2 1.95 3.65 3.87 3.03 1.24-0.39 2.92-1.97 3.75-3.49 0.82-1.53 1.84-2.78 2.25-2.78 0.41-0.01 0.75 1.11 0.75 2.49 0 2 0.5 2.5 2.5 2.5 1.37 0 2.72-0.45 3-1 0.27-0.55-0.22-1.79-1.1-2.75-1.34-1.47-1.5-3.37-0.97-11.75 0.35-5.5 0.82-12.36 1.06-15.25 0.23-2.89 0.11-5.17-0.28-5.08-0.39 0.09-2.32 0.34-4.28 0.56zm-4.36 4.77c0.87-0.83 2.44-1.5 3.5-1.5 1.06 0 2.12 0.34 2.35 0.75 0.23 0.41-0.01 4.35-0.53 8.75-0.52 4.4-1.61 10.36-2.42 13.25-0.81 2.89-2.18 5.59-3.06 6-0.99 0.47-1.92 0.19-2.48-0.75-0.5-0.83-0.9-5.1-0.91-9.5 0-4.4 0.44-9.69 0.99-11.75 0.54-2.06 1.7-4.43 2.56-5.25zm24.05-3.25c-0.77 1.24-1.71 3.37-2.08 4.75l-0.67 2.5c3.63-4.72 3.92-4.81 4.49-3.25 0.35 0.96 1.09 1.75 1.64 1.75 0.55 0 1-1.8 1-4 0-2.87-0.42-4-1.48-4-0.81 0-2.12 1.01-2.9 2.25zm-80.8 0.48c-0.87 0.97-2.31 3.23-3.2 5.02-0.89 1.79-1.7 4.04-1.79 5-0.09 0.96-0.43-0.95-0.75-4.24-0.45-4.67-0.97-6.05-2.33-6.25-1-0.15-1.75 0.38-1.75 1.24 0 0.82 0.43 1.61 0.95 1.75 0.59 0.16 0.57 4.17-0.05 10.75-0.54 5.77-0.86 13.2-0.69 16.5 0.16 3.32 0.74 5.91 1.29 5.8 0.55-0.11 1.55-4.84 2.22-10.5 0.67-5.67 1.54-11.65 1.94-13.3 0.4-1.65 0.79-3.23 0.87-3.5 0.08-0.27 0.44-1.29 0.81-2.25 0.36-0.96 1.11-1.75 1.66-1.75 0.55 0 1 0.9 1 2 0 1.1 0.34 2.01 0.75 2.02 0.41 0 1.06-1.91 1.44-4.25 0.38-2.35 0.36-4.62-0.05-5.04-0.41-0.43-1.45 0.02-2.32 1zm72.18-0.73c0 0.55 0.47 1.11 1.04 1.25 0.73 0.17 0.73 4.83 0.01 15.25-0.57 8.25-0.7 15.39-0.29 15.86 0.41 0.47 1.19 0.63 1.74 0.35 0.55-0.28 1.33-4.49 1.73-9.36 0.41-4.87 1.2-10.31 1.75-12.1 0.82-2.6 0.71-3.5-0.52-4.5-0.85-0.69-1.53-2.71-1.5-4.5 0.03-2.6-0.36-3.25-1.96-3.25-1.1 0-2 0.45-2 1zm-94.86 2.75c-1.1 1.51-2.7 5.45-3.57 8.75-0.87 3.3-1.58 9.37-1.58 13.5 0 5.03 0.49 8.24 1.5 9.75 0.83 1.24 2.41 2.25 3.51 2.25 1.1 0 3.12-1.35 4.5-3 1.37-1.65 2.5-3.45 2.5-4 0-0.55-0.45-1-1-1-0.55 0-1.23 0.68-1.5 1.5-0.28 0.82-1.4 1.5-2.5 1.5-1.1 0-2.16-0.34-2.36-0.75-0.2-0.41-0.65-1.99-1-3.5-0.57-2.43-0.24-2.92 2.86-4.25 2.47-1.06 4.08-2.75 5.48-5.75 1.09-2.34 1.99-6.39 2-9 0.01-2.61-0.43-5.65-0.98-6.75-0.59-1.18-2-2-3.44-2-1.52 0-3.19 1.04-4.42 2.75zm0.84 2.44c0.69-1.31 1.94-2.17 2.87-1.98 1.32 0.27 1.65 1.58 1.65 6.49 0 4.58-0.51 6.85-2 8.88-1.1 1.49-2.68 2.95-3.5 3.24-1.28 0.45-1.41-0.56-0.88-6.9 0.34-4.08 1.18-8.46 1.86-9.73z"/>
		<path id="Path 4" class="s0" d="m106.5 88.78c-2.2 1.01-4.34 2.6-4.75 3.53-0.41 0.93-0.75 3.72-0.75 6.19 0 3.54 0.58 5.11 2.75 7.38 1.68 1.76 4.31 3.16 6.75 3.6 2.76 0.5 5.31 0.23 8.25-0.88 2.34-0.88 5.17-2.84 6.28-4.35 1.12-1.51 2.02-3.54 2-4.5-0.01-0.96-0.7-3.33-1.53-5.25-0.83-1.92-2.51-4.16-3.75-4.97-1.24-0.81-4.28-1.72-6.75-2.03-3.22-0.41-5.64-0.04-8.5 1.28zm177 26.23c-4.4 0.48-11.94 2.02-16.75 3.43-4.81 1.41-11.34 3.71-14.5 5.12-3.16 1.41-9.46 5.01-14 8-4.54 2.99-8.47 6.12-8.75 6.94-0.28 0.82-1.18 1.5-2.02 1.5-0.83 0-3.79 2.59-6.57 5.75-2.79 3.16-5.92 6.65-6.97 7.75-1.06 1.1-1.92 2.34-1.93 2.75 0 0.41-0.8 1.61-1.76 2.65-0.96 1.05-3.42 5.21-5.47 9.25-2.05 4.04-4.68 11.17-5.86 15.85-1.84 7.31-2.08 10.6-1.73 23.5 0.33 12.4 0.8 16.13 2.7 21.5 1.27 3.57 3.65 9.2 5.3 12.5 1.64 3.3 4.49 8.25 6.33 11 1.83 2.75 6.7 8.37 10.82 12.5 4.11 4.12 8.76 8.17 10.32 9 1.56 0.82 3.06 1.78 3.34 2.12 0.28 0.34 2.75 2 5.5 3.69 2.75 1.69 8.38 4.47 12.5 6.18 4.12 1.71 12 4.3 17.5 5.77 8.77 2.33 11.85 2.66 25 2.62 11.8-0.02 16.98-0.5 24.25-2.21 5.09-1.19 12.29-3.32 16-4.72 3.71-1.4 9.68-4.18 13.25-6.17 3.57-2 8.75-5.28 11.5-7.31 2.75-2.03 8.26-7.12 12.25-11.33 3.99-4.2 7.25-8.32 7.25-9.14 0-0.82 0.56-1.66 1.25-1.85 0.69-0.19 2.9-3.46 4.92-7.25 2.02-3.8 4.61-9.37 5.75-12.4 1.14-3.03 2.31-6.85 2.59-8.5 0.28-1.65 0.99-5.93 1.58-9.5 0.58-3.57 0.84-9.88 0.58-14-0.26-4.13-1.45-11.32-2.65-16-1.21-4.68-4.17-12.32-6.59-17-2.42-4.68-7.22-11.85-10.67-15.95-3.44-4.1-9.41-10.1-13.26-13.34-3.85-3.23-9.93-7.52-13.5-9.51-3.57-2-9.76-4.88-13.75-6.41-3.99-1.54-8.04-2.92-9-3.07-0.96-0.15-2.2-0.58-2.75-0.94-0.55-0.36-4.15-1.11-8-1.66-3.85-0.55-11.27-1.22-16.5-1.48-5.23-0.27-13.1-0.1-17.5 0.37z"/>
		<path id="Path 5" class="s3" d="m107.9 94.75c-2.39 2.09-2.99 3.29-2.52 5 0.34 1.24 2.08 2.97 3.87 3.86 2.07 1.02 4.43 1.38 6.5 1 1.98-0.37 3.84-1.59 4.75-3.11 0.82-1.38 1.27-3.4 1-4.5-0.28-1.1-1.85-2.67-3.5-3.5-1.65-0.83-3.89-1.5-4.98-1.5-1.09 0-3.4 1.24-5.12 2.75z"/>
		<path id="Path 6" class="s4" d="m280.5 120.5c-4.4 0.73-10.48 2.01-13.5 2.84-3.02 0.83-8.43 2.82-12 4.42-3.57 1.6-9.88 5.1-14 7.79-4.13 2.69-11.12 8.51-15.53 12.92-4.96 4.95-9.83 11.1-12.71 16.03-2.58 4.4-5.81 11.15-7.18 15-1.38 3.85-2.97 9.93-3.53 13.5-0.57 3.57-1.04 8.86-1.04 11.75-0.01 2.89 0.83 9.41 1.86 14.5 1.03 5.09 3.53 12.85 5.57 17.25 2.03 4.4 6.03 11.11 8.88 14.92 2.85 3.8 7.88 9.36 11.18 12.35 3.3 2.99 8.7 7.28 12 9.53 3.3 2.25 9.37 5.55 13.5 7.33 4.12 1.78 11.55 4.4 16.5 5.82 8.11 2.33 10.69 2.59 26 2.58 13.35-0.01 18.61-0.41 24.5-1.9 4.12-1.04 11.1-3.33 15.5-5.1 4.4-1.76 10.93-4.91 14.5-7 3.57-2.09 10.05-7.11 14.39-11.16 4.34-4.05 9.82-10.07 12.17-13.37 2.35-3.3 5.85-9.38 7.78-13.5 1.93-4.13 4.3-10.43 5.27-14 1.23-4.51 1.78-10.18 1.79-18.5 0.02-9.42-0.46-13.67-2.19-19.75-1.22-4.26-3.73-10.79-5.6-14.5-1.86-3.71-5.57-9.64-8.25-13.17-2.67-3.54-7.34-8.64-10.36-11.35-3.02-2.7-7.98-6.59-11-8.64-3.02-2.04-7.98-5.08-11-6.75-3.02-1.67-8.43-4.04-12-5.27-3.57-1.22-9.65-2.89-13.5-3.72-3.85-0.82-12.18-1.65-18.5-1.83-6.59-0.2-14.92 0.22-19.5 0.98z"/>
		<path id="Path 7" class="s0" d="m324.39 141.91c-1.72 1.06-4.15 3.42-5.4 5.26-1.77 2.58-2.12 4.01-1.53 6.33 0.42 1.65 2.17 4.26 3.9 5.8 1.73 1.54 4.72 3.05 6.64 3.37 2.24 0.36 4.67-0.02 6.75-1.05 1.79-0.89 4.15-3.08 5.25-4.87 1.09-1.79 1.99-4.15 1.99-5.25 0-1.1-0.9-3.46-1.99-5.25-1.1-1.79-3.57-3.93-5.5-4.75-1.92-0.82-4.29-1.5-5.25-1.5-0.96-0.01-3.15 0.86-4.86 1.91z"/>
		<path id="Path 8" class="s5" d="m327 145.71c-0.82 0.3-2.3 1.28-3.28 2.17-0.98 0.89-1.77 2.41-1.75 3.37 0.02 0.96 1.27 2.89 2.78 4.28 1.51 1.4 3.65 2.54 4.75 2.54 1.1 0 3.24-1.14 4.75-2.54 1.51-1.39 2.75-3.21 2.75-4.03 0-0.82-1.24-2.64-2.75-4.03-1.51-1.4-3.43-2.49-4.25-2.42-0.82 0.06-2.18 0.36-3 0.66z"/>
	</g>
</svg>